<svg width="36" height="36" viewBox="0 0 36 36" fill="none" xmlns="http://www.w3.org/2000/svg">
<path d="M18.0001 1.28162C14.6935 1.28162 11.4612 2.26213 8.71188 4.09917C5.96256 5.9362 3.81973 8.54725 2.55435 11.6021C1.28898 14.657 0.957903 18.0185 1.60298 21.2615C2.24807 24.5046 3.84033 27.4835 6.17844 29.8216C8.51654 32.1597 11.4955 33.752 14.7385 34.3971C17.9815 35.0421 21.343 34.7111 24.3979 33.4457C27.4528 32.1803 30.0638 30.0375 31.9009 27.2882C33.7379 24.5389 34.7184 21.3065 34.7184 18C34.7134 13.5675 32.9505 9.31803 29.8162 6.18381C26.682 3.0496 22.4325 1.2866 18.0001 1.28162ZM18.0001 33.7339C14.8882 33.7339 11.8462 32.8111 9.25877 31.0823C6.67133 29.3534 4.65466 26.8961 3.4638 24.0211C2.27293 21.1461 1.96135 17.9825 2.56844 14.9304C3.17554 11.8783 4.67406 9.0748 6.87449 6.87436C9.07493 4.67393 11.8785 3.17541 14.9305 2.56832C17.9826 1.96122 21.1462 2.2728 24.0212 3.46367C26.8962 4.65454 29.3535 6.6712 31.0824 9.25864C32.8113 11.8461 33.7341 14.8881 33.7341 18C33.7294 22.1715 32.0703 26.1708 29.1206 29.1205C26.1709 32.0702 22.1716 33.7293 18.0001 33.7339Z" fill="white"/>
<path d="M18 4.29639C15.2897 4.29639 12.6402 5.10009 10.3867 6.60586C8.13314 8.11164 6.37671 10.2519 5.33952 12.7559C4.30232 15.2599 4.03095 18.0152 4.5597 20.6735C5.08846 23.3317 6.39361 25.7735 8.31009 27.6899C10.2266 29.6064 12.6683 30.9116 15.3266 31.4403C17.9848 31.9691 20.7402 31.6977 23.2442 30.6605C25.7482 29.6233 27.8884 27.8669 29.3942 25.6133C30.8999 23.3598 31.7036 20.7103 31.7036 18C31.6995 14.3669 30.2544 10.8837 27.6853 8.31469C25.1163 5.74566 21.6332 4.30056 18 4.29639ZM18.4922 30.7058V29.0295C18.4922 28.899 18.4403 28.7738 18.348 28.6815C18.2557 28.5892 18.1306 28.5373 18 28.5373C17.8695 28.5373 17.7443 28.5892 17.652 28.6815C17.5597 28.7738 17.5078 28.899 17.5078 29.0295V30.7058C14.3093 30.5783 11.2761 29.2507 9.01253 26.9872C6.74895 24.7238 5.42107 21.6907 5.29342 18.4922H6.96967C7.10021 18.4922 7.2254 18.4403 7.3177 18.348C7.41001 18.2557 7.46186 18.1305 7.46186 18C7.46186 17.8695 7.41001 17.7443 7.3177 17.652C7.2254 17.5597 7.10021 17.5078 6.96967 17.5078H5.29342C5.42087 14.3091 6.74865 11.2759 9.01226 9.01225C11.2759 6.74864 14.3091 5.42086 17.5078 5.29342V6.96967C17.5078 7.1002 17.5597 7.22539 17.652 7.3177C17.7443 7.41 17.8695 7.46186 18 7.46186C18.1306 7.46186 18.2557 7.41 18.348 7.3177C18.4403 7.22539 18.4922 7.1002 18.4922 6.96967V5.29342C21.6909 5.42086 24.7242 6.74864 26.9878 9.01225C29.2514 11.2759 30.5792 14.3091 30.7066 17.5078H29.0304C28.8998 17.5078 28.7746 17.5597 28.6823 17.652C28.59 17.7443 28.5382 17.8695 28.5382 18C28.5382 18.1305 28.59 18.2557 28.6823 18.348C28.7746 18.4403 28.8998 18.4922 29.0304 18.4922H30.7066C30.5792 21.6909 29.2514 24.7242 26.9878 26.9878C24.7242 29.2514 21.6909 30.5792 18.4922 30.7066V30.7058Z" fill="white"/>
<path d="M20.8658 11.4066C21.4957 11.681 22.083 12.0444 22.6095 12.4858C22.7099 12.5678 22.8384 12.6069 22.9674 12.5947C23.0964 12.5825 23.2154 12.5199 23.2985 12.4206C23.3816 12.3212 23.4223 12.1931 23.4115 12.064C23.4008 11.9349 23.3396 11.8152 23.2412 11.7309C22.6421 11.2292 21.9741 10.816 21.2576 10.5041C21.1379 10.4519 21.0024 10.4493 20.8808 10.497C20.7593 10.5448 20.6616 10.6388 20.6094 10.7585C20.5572 10.8782 20.5547 11.0137 20.6024 11.1352C20.6501 11.2568 20.7441 11.3544 20.8638 11.4066H20.8658Z" fill="white"/>
<path d="M24.8935 15.9594C24.9119 16.0214 24.9422 16.0792 24.9829 16.1294C25.0235 16.1797 25.0737 16.2215 25.1304 16.2524C25.1872 16.2832 25.2496 16.3026 25.3138 16.3094C25.3781 16.3162 25.4431 16.3103 25.5051 16.292C25.5671 16.2737 25.6249 16.2433 25.6752 16.2027C25.7254 16.162 25.7672 16.1119 25.7981 16.0551C25.829 15.9983 25.8483 15.936 25.8551 15.8717C25.8619 15.8074 25.856 15.7424 25.8377 15.6804C25.602 14.8834 25.2456 14.1272 24.7808 13.4383C24.7061 13.3342 24.5938 13.2634 24.4677 13.2408C24.3416 13.2182 24.2117 13.2456 24.1055 13.3172C23.9994 13.3889 23.9253 13.4991 23.8991 13.6245C23.8729 13.7498 23.8966 13.8805 23.9651 13.9887C24.3734 14.5943 24.6865 15.2589 24.8935 15.9594Z" fill="white"/>
<path d="M25.6796 17.5078C25.6149 17.5078 25.5509 17.5205 25.4912 17.5452C25.4315 17.5699 25.3772 17.6062 25.3315 17.6519C25.2858 17.6976 25.2495 17.7519 25.2248 17.8116C25.2001 17.8714 25.1874 17.9354 25.1874 18C25.1879 19.4158 24.7702 20.8002 23.9868 21.9795C23.2033 23.1587 22.0891 24.0804 20.7838 24.6287C19.4785 25.1771 18.0404 25.3277 16.6498 25.0617C15.2592 24.7958 13.9782 24.125 12.9674 23.1337C11.9566 22.1424 11.2611 20.8746 10.9682 19.4894C10.6753 18.1043 10.798 16.6635 11.3209 15.3478C11.8438 14.0321 12.7436 12.9002 13.9074 12.094C15.0713 11.2879 16.4473 10.8434 17.8628 10.8163L16.9468 11.7321C16.9011 11.7778 16.8648 11.832 16.8401 11.8917C16.8154 11.9514 16.8027 12.0154 16.8027 12.08C16.8027 12.1446 16.8154 12.2086 16.8401 12.2683C16.8648 12.328 16.9011 12.3822 16.9468 12.4279C16.9924 12.4736 17.0467 12.5098 17.1064 12.5345C17.1661 12.5593 17.2301 12.572 17.2947 12.572C17.3593 12.572 17.4233 12.5593 17.483 12.5345C17.5426 12.5098 17.5969 12.4736 17.6426 12.4279L19.3396 10.7314C19.3439 10.7272 19.347 10.7215 19.3515 10.717C19.3599 10.708 19.3672 10.6982 19.3751 10.6889C19.3878 10.6732 19.3995 10.6568 19.4102 10.6397C19.4153 10.6315 19.4195 10.6228 19.424 10.6141C19.4348 10.5936 19.4442 10.5723 19.4521 10.5505C19.4544 10.5441 19.4561 10.5376 19.458 10.5309C19.4662 10.5054 19.4722 10.4794 19.476 10.453V10.4473C19.476 10.4437 19.476 10.44 19.476 10.4364C19.4787 10.419 19.4804 10.4016 19.4811 10.384C19.4811 10.3742 19.4789 10.3646 19.4783 10.3559C19.4777 10.3472 19.4783 10.3427 19.4763 10.3362C19.474 10.311 19.4697 10.286 19.4634 10.2614C19.4614 10.2544 19.4592 10.2476 19.4572 10.2409C19.45 10.2174 19.4411 10.1945 19.4308 10.1723C19.4274 10.1655 19.4237 10.159 19.4201 10.1526C19.4089 10.1314 19.3961 10.111 19.3818 10.0918C19.377 10.0854 19.3714 10.0792 19.3664 10.073C19.3576 10.0606 19.3482 10.0487 19.3382 10.0373L17.6412 8.34049C17.5483 8.25085 17.424 8.20126 17.2949 8.20241C17.1659 8.20356 17.0424 8.25535 16.9512 8.34662C16.86 8.4379 16.8082 8.56135 16.8071 8.6904C16.806 8.81945 16.8557 8.94377 16.9454 9.03658L17.7469 9.83477C16.1425 9.88472 14.5883 10.4062 13.2784 11.334C11.9685 12.2619 10.9609 13.555 10.3815 15.052C9.80202 16.549 9.67637 18.1835 10.0202 19.7515C10.364 21.3195 11.1621 22.7514 12.3148 23.8686C13.4675 24.9857 14.9237 25.7386 16.5016 26.0332C18.0796 26.3278 19.7094 26.1511 21.1875 25.5251C22.6656 24.8991 23.9266 23.8516 24.8131 22.5133C25.6995 21.175 26.172 19.6052 26.1718 18C26.1718 17.8695 26.1199 17.7443 26.0276 17.652C25.9353 17.5597 25.8101 17.5078 25.6796 17.5078Z" fill="white"/>
<path d="M15.2865 18.1405L13.5304 19.4542V20.4153H17.2291V19.3578H15.3417L16.0887 18.8251C16.9181 18.2581 17.1808 17.7673 17.1808 17.1376C17.1808 16.2317 16.434 15.582 15.3695 15.582C15.0018 15.5789 14.6385 15.6616 14.3085 15.8236C13.9784 15.9856 13.6907 16.2224 13.4683 16.5152L14.2079 17.2481C14.3424 17.0726 14.5134 16.9285 14.7092 16.8258C14.905 16.7231 15.1208 16.6643 15.3417 16.6536C15.4183 16.6451 15.4959 16.6524 15.5697 16.6749C15.6435 16.6974 15.7119 16.7347 15.7708 16.7845C15.8297 16.8343 15.8778 16.8956 15.9123 16.9646C15.9467 17.0336 15.9667 17.109 15.9711 17.186C15.9711 17.4779 15.8189 17.7406 15.2865 18.1405Z" fill="white"/>
<path d="M18.4456 19.5105H20.7479V20.4162H21.9291V19.5105H22.5307V18.5287H21.9303V15.6735H20.4922L18.3418 18.6117L18.4456 19.5105ZM20.7479 16.8975V18.5287H19.5666L20.7479 16.8975Z" fill="white"/>
</svg>
