<svg width="36" height="36" viewBox="0 0 36 36" fill="none" xmlns="http://www.w3.org/2000/svg">
<path d="M33.5449 30.9728C34.8986 30.9728 36 29.8714 36 28.5176V3.51562C36 1.57711 34.4229 0 32.4844 0H3.51562C1.57711 0 0 1.57711 0 3.51562V28.5176C0 29.8714 1.10137 30.9728 2.4551 30.9728H3.23438V34.5938H0.703125C0.314789 34.5938 0 34.9086 0 35.2969C0 35.6851 0.314789 36 0.703125 36H35.2969C35.6852 36 36 35.6851 36 35.2969C36 34.9086 35.6852 34.5938 35.2969 34.5938H32.7656V30.9728H33.5449ZM1.40625 3.51562C1.40625 2.35252 2.35252 1.40625 3.51562 1.40625H32.4844C33.6475 1.40625 34.5938 2.35252 34.5938 3.51562V5.0625H1.47684C1.45301 5.0625 1.42945 5.06377 1.40625 5.06609V3.51562ZM7.73438 34.5938H4.64062V28.2656H7.73438V34.5938ZM15.6094 34.5938H12.5156V20.4913H15.6094V34.5938ZM23.4844 34.5938H20.3906V26.4375H23.4844V34.5938ZM32.0625 18.0352H27.5625C27.1742 18.0352 26.8594 18.35 26.8594 18.7383V22.289C26.8594 22.6773 27.1742 22.9921 27.5625 22.9921C27.9508 22.9921 28.2656 22.6773 28.2656 22.289V19.4414H31.3594V34.5938H28.2656V27.0176C28.2656 26.6293 27.9508 26.3145 27.5625 26.3145C27.1742 26.3145 26.8594 26.6293 26.8594 27.0176V34.5938H24.8906V25.7344C24.8906 25.3461 24.5758 25.0312 24.1875 25.0312H19.6875C19.2992 25.0312 18.9844 25.3461 18.9844 25.7344V34.5938H17.0156V19.7882C17.0156 19.3999 16.7008 19.0851 16.3125 19.0851H11.8125C11.4242 19.0851 11.1094 19.3999 11.1094 19.7882V34.5938H9.14062V27.5625C9.14062 27.1742 8.82584 26.8594 8.4375 26.8594H3.9375C3.54916 26.8594 3.23438 27.1742 3.23438 27.5625V29.5665H2.4551C1.87671 29.5665 1.40625 29.096 1.40625 28.5176V6.46516C1.42945 6.46748 1.45301 6.46875 1.47684 6.46875H34.5938V28.5176C34.5938 29.096 34.1232 29.5665 33.5449 29.5665H32.7656V18.7383C32.7656 18.35 32.4508 18.0352 32.0625 18.0352Z" fill="white"/>
<path d="M31.4998 2.53125H15.6138C15.2254 2.53125 14.9106 2.84611 14.9106 3.23438C14.9106 3.62264 15.2254 3.9375 15.6138 3.9375H31.4998C31.8882 3.9375 32.2029 3.62264 32.2029 3.23438C32.2029 2.84611 31.8882 2.53125 31.4998 2.53125Z" fill="white"/>
<path d="M7.80961 2.73727C7.67883 2.60648 7.49742 2.53125 7.3125 2.53125C7.12758 2.53125 6.94617 2.60641 6.81539 2.73727C6.68461 2.86805 6.60938 3.04945 6.60938 3.23438C6.60938 3.4193 6.68461 3.6007 6.81539 3.73141C6.94617 3.86227 7.12758 3.9375 7.3125 3.9375C7.49742 3.9375 7.67883 3.86227 7.80961 3.73141C7.94039 3.6007 8.01562 3.4193 8.01562 3.23438C8.01562 3.04945 7.94039 2.86805 7.80961 2.73727Z" fill="white"/>
<path d="M4.99711 2.73727C4.86633 2.60648 4.68492 2.53125 4.5 2.53125C4.31508 2.53125 4.13367 2.60641 4.00289 2.73727C3.87211 2.86805 3.79688 3.04945 3.79688 3.23438C3.79688 3.4193 3.87211 3.6007 4.00289 3.73141C4.13367 3.86227 4.31508 3.9375 4.5 3.9375C4.68492 3.9375 4.86633 3.86227 4.99711 3.73141C5.12789 3.6007 5.20312 3.4193 5.20312 3.23438C5.20312 3.04945 5.12789 2.86805 4.99711 2.73727Z" fill="white"/>
<path d="M10.6221 2.73727C10.4913 2.60648 10.3106 2.53125 10.125 2.53125C9.94008 2.53125 9.75867 2.60641 9.62789 2.73727C9.49711 2.86805 9.42188 3.04945 9.42188 3.23438C9.42188 3.4193 9.49711 3.6007 9.62789 3.73141C9.75867 3.86227 9.94008 3.9375 10.125 3.9375C10.3099 3.9375 10.4913 3.86227 10.6221 3.73141C10.7529 3.6007 10.8281 3.4193 10.8281 3.23438C10.8281 3.04945 10.7529 2.86805 10.6221 2.73727Z" fill="white"/>
<path d="M28.0596 24.2979C27.9288 24.1664 27.7474 24.0919 27.5625 24.0919C27.3776 24.0919 27.1962 24.1665 27.0654 24.2979C26.9346 24.4287 26.8594 24.6101 26.8594 24.795C26.8594 24.9799 26.9346 25.1613 27.0654 25.2921C27.1962 25.4228 27.3776 25.4981 27.5625 25.4981C27.7474 25.4981 27.9288 25.4229 28.0596 25.2921C28.1904 25.1613 28.2656 24.9799 28.2656 24.795C28.2656 24.6094 28.1904 24.4287 28.0596 24.2979Z" fill="white"/>
<path d="M29.8123 9.55823C28.4165 9.55823 27.2811 10.6937 27.2811 12.0895C27.2811 12.6439 27.4607 13.1569 27.7642 13.5743L23.0937 18.2448C22.7312 18.0442 22.3148 17.9296 21.872 17.9296C21.473 17.9296 21.0954 18.0228 20.7594 18.188L15.8826 13.3112C16.0832 12.9487 16.1978 12.5323 16.1978 12.0895C16.1978 10.6937 15.0623 9.55823 13.6665 9.55823C12.2708 9.55823 11.1353 10.6937 11.1353 12.0895C11.1353 12.5773 11.2744 13.0331 11.5144 13.4199L7.36223 17.572C6.99977 17.3714 6.58338 17.2568 6.14062 17.2568C4.74485 17.2568 3.60938 18.3923 3.60938 19.7881C3.60938 21.1838 4.74485 22.3193 6.14062 22.3193C7.5364 22.3193 8.67188 21.1838 8.67188 19.7881C8.67188 19.3452 8.55727 18.9288 8.35666 18.5664L12.5584 14.3647C12.8933 14.5284 13.2693 14.6207 13.6665 14.6207C14.1093 14.6207 14.5257 14.506 14.8881 14.3054L19.7172 19.1344C19.4788 19.5205 19.3407 19.9747 19.3407 20.4607C19.3407 21.8565 20.4762 22.992 21.872 22.992C23.2678 22.992 24.4032 21.8565 24.4032 20.4607C24.4032 20.0179 24.2886 19.6015 24.088 19.2391L28.8837 14.4434C29.1715 14.5574 29.4846 14.6207 29.8123 14.6207C31.2081 14.6207 32.3436 13.4853 32.3436 12.0895C32.3436 10.6937 31.2081 9.55823 29.8123 9.55823ZM6.1407 20.9132C5.5204 20.9132 5.0157 20.4085 5.0157 19.7882C5.0157 19.1679 5.5204 18.6632 6.1407 18.6632C6.76099 18.6632 7.2657 19.1679 7.2657 19.7882C7.2657 20.4085 6.76099 20.9132 6.1407 20.9132ZM13.6666 13.2145C13.0463 13.2145 12.5416 12.7098 12.5416 12.0895C12.5416 11.4692 13.0463 10.9645 13.6666 10.9645C14.2869 10.9645 14.7916 11.4692 14.7916 12.0895C14.7916 12.7098 14.2869 13.2145 13.6666 13.2145ZM21.8721 21.5859C21.2518 21.5859 20.7471 21.0812 20.7471 20.4609C20.7471 19.8406 21.2518 19.3359 21.8721 19.3359C22.4924 19.3359 22.9971 19.8406 22.9971 20.4609C22.9971 21.0812 22.4924 21.5859 21.8721 21.5859ZM29.8123 13.2145C29.192 13.2145 28.6873 12.7098 28.6873 12.0895C28.6873 11.4692 29.192 10.9645 29.8123 10.9645C30.4326 10.9645 30.9373 11.4692 30.9373 12.0895C30.9373 12.7098 30.4326 13.2145 29.8123 13.2145Z" fill="white"/>
<path d="M10.4297 9.06687C10.2982 8.93608 10.1175 8.86078 9.93262 8.86078C9.74699 8.86078 9.56559 8.93601 9.4348 9.06687C9.30402 9.19758 9.22949 9.37899 9.22949 9.56391C9.22949 9.74883 9.30402 9.93024 9.4348 10.061C9.56629 10.1918 9.74699 10.267 9.93262 10.267C10.1175 10.267 10.2982 10.1919 10.4297 10.061C10.5605 9.93024 10.6357 9.74883 10.6357 9.56391C10.6357 9.37899 10.5605 9.19758 10.4297 9.06687Z" fill="white"/>
<path d="M7.3125 8.86084H3.9375C3.54916 8.86084 3.23438 9.1757 3.23438 9.56396C3.23438 9.95222 3.54916 10.2671 3.9375 10.2671H7.3125C7.70084 10.2671 8.01562 9.95222 8.01562 9.56396C8.01562 9.1757 7.70084 8.86084 7.3125 8.86084Z" fill="white"/>
<path d="M7.3125 12.2358H3.9375C3.54916 12.2358 3.23438 12.5507 3.23438 12.939C3.23438 13.3272 3.54916 13.6421 3.9375 13.6421H7.3125C7.70084 13.6421 8.01562 13.3272 8.01562 12.939C8.01562 12.5507 7.70084 12.2358 7.3125 12.2358Z" fill="white"/>
</svg>
