<svg width="36" height="36" viewBox="0 0 36 36" fill="none" xmlns="http://www.w3.org/2000/svg">
<path d="M20.8998 7.20707C20.8214 6.9829 20.6992 6.77657 20.5404 6.60002C21.2023 5.8645 21.1426 4.7317 20.407 4.06982C20.2305 3.91097 20.0242 3.7888 19.8 3.71042V2.40002H18.6V3.60002H17.4V2.40002H16.2V3.60002H15.6C15.2686 3.60002 15 3.86867 15 4.20002V9.00002C15 9.33137 15.2686 9.60002 15.6 9.60002H16.2V10.8H17.4V9.60002H18.6V10.8H19.8V9.48962C20.734 9.163 21.2264 8.14105 20.8998 7.20707ZM19.2 8.40002H16.2V7.20002H19.2C19.5313 7.20002 19.8 7.46867 19.8 7.80002C19.8 8.13137 19.5313 8.40002 19.2 8.40002ZM19.2 6.00002H16.2V4.80002H19.2C19.5313 4.80002 19.8 5.06867 19.8 5.40002C19.8 5.73137 19.5313 6.00002 19.2 6.00002Z" fill="white"/>
<path d="M17.9999 0C14.3566 0.004275 11.4042 2.95673 11.3999 6.6C11.3999 10.2451 14.3548 13.2 17.9999 13.2C21.645 13.2 24.5999 10.2451 24.5999 6.6C24.5999 2.95493 21.645 0 17.9999 0ZM17.9999 12C15.0176 12 12.5999 9.5823 12.5999 6.6C12.5999 3.61763 15.0176 1.2 17.9999 1.2C20.9809 1.2033 23.3966 3.61905 23.3999 6.6C23.3999 9.5823 20.9823 12 17.9999 12Z" fill="white"/>
<path d="M29.3998 9C25.7547 9 22.7998 11.9549 22.7998 15.6C22.7998 19.2451 25.7547 22.2 29.3998 22.2C33.0449 22.2 35.9998 19.2451 35.9998 15.6C35.9955 11.9567 33.0431 9.00428 29.3998 9ZM29.3998 21C26.4175 21 23.9998 18.5823 23.9998 15.6C23.9998 12.6176 26.4175 10.2 29.3998 10.2C32.3822 10.2 34.7998 12.6176 34.7998 15.6C34.7965 18.5809 32.3808 20.9967 29.3998 21Z" fill="white"/>
<path d="M32.6979 16.0673C32.408 15.4169 31.762 14.9984 31.0499 14.9999C30.9333 15.0005 30.8169 15.0122 30.7025 15.0347C31.3881 14.3148 31.3602 13.1755 30.6403 12.4899C29.9204 11.8043 28.7811 11.8322 28.0955 12.5521C27.4335 13.2473 27.4335 14.3396 28.0955 15.0347C27.9878 15.0131 27.8784 15.0014 27.7685 14.9999C26.7744 14.9982 25.9671 15.8027 25.9653 16.7968C25.9636 17.7909 26.7681 18.5982 27.7622 18.5999C28.4741 18.6012 29.1198 18.1828 29.4095 17.5325C29.8141 18.4406 30.8782 18.8487 31.7862 18.4441C32.6943 18.0395 33.1024 16.9754 32.6979 16.0673ZM27.7685 17.3999C27.4371 17.3999 27.1685 17.1313 27.1685 16.7999C27.1685 16.4686 27.4371 16.1999 27.7685 16.1999C28.0998 16.1999 28.3685 16.4686 28.3685 16.7999C28.3685 17.1313 28.0998 17.3999 27.7685 17.3999ZM29.4095 16.0673C29.3262 15.8829 29.2127 15.7138 29.0735 15.5669C29.181 15.588 29.2903 15.599 29.3999 15.5999C29.5165 15.5993 29.6328 15.5877 29.7473 15.5651C29.607 15.7121 29.4927 15.8819 29.4095 16.0673ZM29.3999 14.3999C29.0685 14.3999 28.7999 14.1313 28.7999 13.7999C28.7999 13.4686 29.0685 13.1999 29.3999 13.1999C29.7312 13.1999 29.9999 13.4686 29.9999 13.7999C29.9999 14.1313 29.7312 14.3999 29.3999 14.3999ZM31.0499 17.3999C30.7185 17.3999 30.4499 17.1313 30.4499 16.7999C30.4499 16.4686 30.7185 16.1999 31.0499 16.1999C31.3812 16.1999 31.6499 16.4686 31.6499 16.7999C31.6499 17.1313 31.3812 17.3999 31.0499 17.3999Z" fill="white"/>
<path d="M9.6 22.8C5.95492 22.8 3 25.7549 3 29.4C3 33.0451 5.95492 36 9.6 36C13.2451 36 16.2 33.0451 16.2 29.4C16.1957 25.7567 13.2433 22.8043 9.6 22.8ZM9.6 34.8C6.61762 34.8 4.2 32.3823 4.2 29.4C4.2 26.4176 6.61762 24 9.6 24C12.5824 24 15 26.4176 15 29.4C14.9967 32.3809 12.5809 34.7967 9.6 34.8Z" fill="white"/>
<path d="M8.12325 30.6001L8.65665 29.4001H10.7998V28.2001H9.19005L10.15 26.0437L9.05325 25.5565L7.87665 28.2001H6.59984V29.4001H7.34324L6.65144 30.9565C6.51689 31.2593 6.65332 31.6138 6.95617 31.7484C7.03289 31.7824 7.11592 31.8001 7.19984 31.8001H11.9999V30.6001H8.12325Z" fill="white"/>
<path d="M26.3998 22.8C22.7547 22.8 19.7998 25.7549 19.7998 29.4C19.7998 33.0451 22.7547 36 26.3998 36C30.0449 36 32.9998 33.0451 32.9998 29.4C32.9955 25.7567 30.0431 22.8043 26.3998 22.8ZM26.3998 34.8C23.4175 34.8 20.9998 32.3823 20.9998 29.4C20.9998 26.4176 23.4175 24 26.3998 24C29.3822 24 31.7998 26.4176 31.7998 29.4C31.7965 32.3809 29.3808 34.7967 26.3998 34.8Z" fill="white"/>
<path d="M6.6 9C2.95493 9 0 11.9549 0 15.6C0.004275 19.2433 2.95673 22.1957 6.6 22.2C10.2451 22.2 13.2 19.2451 13.2 15.6C13.2 11.9549 10.2451 9 6.6 9ZM6.6 21C3.61763 21 1.2 18.5823 1.2 15.6C1.2033 12.6191 3.61905 10.2033 6.6 10.2C9.58238 10.2 12 12.6176 12 15.6C12 18.5823 9.58238 21 6.6 21Z" fill="white"/>
<path d="M8.85842 12.6437C8.7427 12.6147 8.62382 12.6 8.5045 12.6H4.2001V13.8H8.5045C8.58332 13.7996 8.65787 13.836 8.7061 13.8984C8.75515 13.96 8.77225 14.0412 8.7523 14.1174L7.9801 17.2062C7.95152 17.3201 7.84915 17.3999 7.7317 17.4H3.6001V18.6H7.7323C8.40047 18.6006 8.983 18.1456 9.1441 17.4972L9.9157 14.409C10.1112 13.6296 9.63782 12.8392 8.85842 12.6437Z" fill="white"/>
<path d="M6 15H3V16.2H6V15Z" fill="white"/>
<path d="M29.4002 30V27C29.4002 26.6687 29.1315 26.4 28.8002 26.4C28.6704 26.4 28.5441 26.4421 28.4402 26.52L26.4002 28.05L24.3602 26.52C24.0951 26.3212 23.719 26.3749 23.5202 26.64C23.4423 26.7439 23.4002 26.8702 23.4002 27V30H22.2002V31.2H24.0002C24.3315 31.2 24.6002 30.9314 24.6002 30.6V28.2L26.0402 29.28C26.2535 29.44 26.5469 29.44 26.7602 29.28L28.2002 28.2V30.6C28.2002 30.9314 28.4688 31.2 28.8002 31.2H30.6002V30H29.4002Z" fill="white"/>
<path d="M6.5999 3.59998H5.3999V4.79998H6.5999V3.59998Z" fill="white"/>
<path d="M10.2 3H9V4.2H10.2V3Z" fill="white"/>
<path d="M5.4002 6.59998H4.2002V7.79998H5.4002V6.59998Z" fill="white"/>
<path d="M1.2 24.6H0V25.8H1.2V24.6Z" fill="white"/>
<path d="M2.4002 21.6H1.2002V22.8H2.4002V21.6Z" fill="white"/>
<path d="M1.8001 27.6H0.600098V28.8H1.8001V27.6Z" fill="white"/>
<path d="M18.5999 34.8H17.3999V36H18.5999V34.8Z" fill="white"/>
<path d="M16.8001 33.6H15.6001V34.8H16.8001V33.6Z" fill="white"/>
<path d="M20.4002 33.6H19.2002V34.8H20.4002V33.6Z" fill="white"/>
<path d="M31.2 3H30V4.2H31.2V3Z" fill="white"/>
<path d="M32.4002 6.59998H31.2002V7.79998H32.4002V6.59998Z" fill="white"/>
<path d="M26.9998 2.40002H25.7998V3.60002H26.9998V2.40002Z" fill="white"/>
<path d="M34.8001 21.6H33.6001V22.8H34.8001V21.6Z" fill="white"/>
<path d="M34.8001 27H33.6001V28.2H34.8001V27Z" fill="white"/>
<path d="M35.9998 24H34.7998V25.2H35.9998V24Z" fill="white"/>
</svg>
