<svg width="36" height="36" viewBox="0 0 36 36" fill="none" xmlns="http://www.w3.org/2000/svg">
<g clip-path="url(#clip0)">
<path d="M16.579 24.4171C16.8534 24.1421 16.8534 23.6972 16.579 23.4223C16.3044 23.1481 15.8594 23.1481 15.5845 23.4223C15.3104 23.6972 15.3104 24.1421 15.5845 24.4171C15.8594 24.6912 16.3044 24.6912 16.579 24.4171Z" fill="white"/>
<path d="M13.2505 7.73218C13.2505 11.9957 16.7191 15.4646 20.9827 15.4646C25.2462 15.4646 28.7149 11.9957 28.7149 7.73218C28.7149 3.46866 25.2462 0 20.9827 0C16.7191 0 13.2505 3.46866 13.2505 7.73218ZM27.3092 7.73218C27.3092 11.2206 24.4711 14.0587 20.9827 14.0587C17.4942 14.0587 14.6562 11.2206 14.6562 7.73218C14.6562 4.24402 17.4942 1.40598 20.9827 1.40598C24.4711 1.40598 27.3092 4.24402 27.3092 7.73218Z" fill="white"/>
<path d="M8.13174 35.792C8.4042 36.0666 8.84777 36.0697 9.12381 35.7977L12.5318 32.4403C13.1107 31.8613 13.2868 31.0041 13.0322 30.259L13.7653 29.552C14.1599 29.1708 14.6796 28.9607 15.2289 28.9607H24.5736C26.2314 28.9607 27.7984 28.324 28.9863 27.168C29.0352 27.1205 28.6152 27.6151 35.3614 19.5523C36.3619 18.3685 36.2123 16.5909 35.0274 15.5892C33.8499 14.5969 32.0861 14.7394 31.0827 15.9029L26.9348 20.1661C26.4111 19.5215 25.6124 19.1197 24.7494 19.1197H16.9109C15.7955 18.653 14.612 18.4168 13.3909 18.4168C10.006 18.4168 7.05041 19.9802 5.46426 22.9113C4.79602 22.7847 4.09124 22.9869 3.58422 23.4939L0.240258 26.8477C-0.0327526 27.1216 -0.0333019 27.5646 0.239159 27.8392L8.13174 35.792ZM13.3906 19.8225C14.4673 19.8225 15.5082 20.0392 16.4852 20.4666C16.5742 20.5056 16.67 20.5256 16.767 20.5256H24.7494C25.5116 20.5256 26.1554 21.1472 26.1554 21.9314C26.1554 22.7067 25.5248 23.3373 24.7494 23.3373H19.0143C18.6262 23.3373 18.3114 23.6521 18.3114 24.0402C18.3114 24.4285 18.6262 24.743 19.0143 24.743H24.7494C26.2998 24.743 27.5611 23.4818 27.5611 21.9314C27.5611 21.8078 27.5523 21.6853 27.5364 21.5639C31.5488 17.4393 32.1146 16.8598 32.1388 16.8309C32.6398 16.2396 33.5291 16.1646 34.1207 16.6634C34.7129 17.1641 34.7879 18.0529 34.2855 18.6475L27.9807 26.1847C27.0601 27.0686 25.8513 27.555 24.5736 27.555H15.2289C14.3132 27.555 13.4464 27.9052 12.7888 28.5405L12.1915 29.117L6.68457 23.6103C7.97161 21.1958 10.3867 19.8225 13.3906 19.8225ZM4.57904 24.4873C4.81085 24.2555 5.1668 24.2138 5.44943 24.3884C5.5711 24.4626 5.22174 24.1445 11.5378 30.4518C11.8188 30.7328 11.8036 31.1805 11.5416 31.4425L8.63629 34.3047L1.72946 27.3451L4.57904 24.4873Z" fill="white"/>
<path d="M20.1394 3.51483V4.33853C19.3212 4.62857 18.7334 5.40997 18.7334 6.32651C18.7334 7.48914 19.6793 8.43534 20.8422 8.43534C21.2298 8.43534 21.5451 8.75064 21.5451 9.13819C21.5451 9.52573 21.2298 9.84104 20.8422 9.84104C20.542 9.84104 20.2177 9.65235 19.9295 9.3093C19.6796 9.01212 19.2363 8.97394 18.9391 9.22361C18.6419 9.47354 18.6035 9.91684 18.8534 10.214C19.2292 10.6609 19.6711 10.9724 20.1394 11.1295V11.9499C20.1394 12.3382 20.4541 12.6527 20.8422 12.6527C21.2303 12.6527 21.5451 12.3382 21.5451 11.9499V11.1262C22.3633 10.8358 22.9511 10.0544 22.9511 9.13819C22.9511 7.97528 22.0051 7.02936 20.8422 7.02936C20.4547 7.02936 20.1394 6.71405 20.1394 6.32651C20.1394 5.93897 20.4547 5.62338 20.8422 5.62338C21.0914 5.62338 21.3542 5.75055 21.6025 5.99088C21.8815 6.26087 22.3265 6.25345 22.5965 5.97467C22.8665 5.69562 22.8591 5.25067 22.5803 4.98068C22.2235 4.63544 21.8664 4.44016 21.5451 4.33359V3.51483C21.5451 3.12647 21.2303 2.81171 20.8422 2.81171C20.4541 2.81171 20.1394 3.12647 20.1394 3.51483Z" fill="white"/>
</g>
<defs>
<clipPath id="clip0">
<rect width="35.9297" height="36" fill="white"/>
</clipPath>
</defs>
</svg>
