<svg width="36" height="36" viewBox="0 0 36 36" fill="none" xmlns="http://www.w3.org/2000/svg">
<path d="M34.1637 3.79877H11.6645L11.6646 2.65036C11.6646 1.18891 10.5814 0 9.24982 0H2.41284C1.08239 0 0 1.18891 0 2.65036V26.334C0 27.3459 0.823781 28.1692 1.83628 28.1692H12.0706L10.6542 31.0381H9.50119C8.1322 31.0381 7.01852 32.1511 7.01852 33.5191V35.2969C7.01852 35.6852 7.33331 36 7.72165 36H20.037C20.0412 36 20.0454 35.9994 20.0496 35.9994C20.058 35.9995 20.0664 36 20.0749 36H34.3253C35.2487 36 36 35.2491 36 34.3263V5.634C36 4.62206 35.1762 3.79877 34.1637 3.79877ZM34.5938 14.8444H30.838C30.6153 14.8444 30.4057 14.9499 30.273 15.129L29.7795 15.7951H24.6205L24.1271 15.129C23.9945 14.95 23.7849 14.8444 23.5621 14.8444H19.8063V13.4169C19.8063 13.2719 19.9293 13.1494 20.0748 13.1494H34.3252C34.4707 13.1494 34.5937 13.2719 34.5937 13.4169V14.8444H34.5938ZM34.1637 5.20502C34.3968 5.20502 34.5938 5.40141 34.5938 5.634V11.765C34.5063 11.7508 34.4167 11.7432 34.3253 11.7432H20.0749C19.1514 11.7432 18.4001 12.494 18.4001 13.4169V23.3926H1.40625V19.2348C1.71288 19.39 2.05369 19.4773 2.41284 19.4773H9.24975C10.5802 19.4773 11.6626 18.2884 11.6626 16.8271L11.6642 5.20502H34.1637ZM1.40625 15.9119H10.2566L10.2564 16.8271C10.2564 17.5015 9.79544 18.0712 9.24982 18.0712H2.41284C1.86722 18.0712 1.40625 17.5015 1.40625 16.8271V15.9119ZM4.34489 1.40625H7.31974V2.9378H4.34489V1.40625ZM1.40625 2.65036C1.40625 1.97599 1.86722 1.40625 2.41284 1.40625H2.93864V3.10676C2.93864 3.789 3.4939 4.34405 4.17642 4.34405H7.48821C8.17073 4.34405 8.72599 3.789 8.72599 3.10676V1.40625H9.24982C9.79657 1.40625 10.2585 1.97599 10.2585 2.65022L10.2582 4.46752C10.2576 4.47898 10.2564 4.4903 10.2564 4.5019C10.2564 4.51343 10.2576 4.52468 10.2582 4.53607L10.2568 14.5055H1.40625V5.61804V2.65036ZM1.40625 26.334V24.7989H18.4001V26.7629H1.83628C1.59919 26.763 1.40625 26.5705 1.40625 26.334ZM13.639 28.1692H18.4001V31.0381H12.2226L13.639 28.1692ZM8.42477 33.519C8.42477 32.9264 8.90768 32.4443 9.50119 32.4443C9.50119 32.4443 11.0897 32.4444 11.0907 32.4444C11.0915 32.4444 18.4001 32.4443 18.4001 32.4443V34.3262C18.4001 34.4173 18.4077 34.5066 18.4218 34.5937H8.42477V33.519ZM34.3253 34.5938H20.0749C19.9293 34.5938 19.8064 34.4713 19.8064 34.3263V32.4444H24.0171C24.4054 32.4444 24.7202 32.1296 24.7202 31.7412C24.7202 31.3529 24.4054 31.0381 24.0171 31.0381H19.8063V16.2506H23.2079L23.7013 16.9168C23.8339 17.0958 24.0435 17.2014 24.2663 17.2014H30.1337C30.3564 17.2014 30.566 17.0959 30.6987 16.9168L31.1922 16.2506H34.5938V31.0381H30.3392C29.9509 31.0381 29.6361 31.3529 29.6361 31.7412C29.6361 32.1296 29.9509 32.4444 30.3392 32.4444H34.5938V34.3263C34.5938 34.4713 34.4708 34.5938 34.3253 34.5938Z" fill="white"/>
<path d="M27.1772 31.0381C26.7889 31.0381 26.4741 31.3529 26.4741 31.7412C26.4741 32.1295 26.7889 32.4443 27.1772 32.4443H27.1813C27.5696 32.4443 27.8824 32.1295 27.8824 31.7412C27.8824 31.3529 27.5656 31.0381 27.1772 31.0381Z" fill="white"/>
</svg>
