<svg width="36" height="36" viewBox="0 0 36 36" fill="none" xmlns="http://www.w3.org/2000/svg">
<g clip-path="url(#clip0)">
<path d="M18.3614 19.7931C18.064 19.5773 17.6466 19.644 17.4305 19.9424L9.14745 31.3893C9.02246 31.5621 8.82062 31.6651 8.60785 31.6651H1.9998C1.63197 31.6651 1.33317 31.3661 1.33317 30.9985C1.33317 30.6309 1.63197 30.3319 1.9998 30.3319H7.92686C8.14032 30.3319 8.34147 30.2293 8.46714 30.056L16.7352 18.63C16.9507 18.3318 16.8837 17.915 16.5855 17.6992C16.2874 17.4832 15.8707 17.5502 15.6546 17.8485L7.58637 28.9988H1.9998C0.89708 28.9988 0 29.8959 0 30.9986C0 32.1013 0.89708 32.9984 1.9998 32.9984H8.60785C9.24783 32.9984 9.85324 32.6891 10.228 32.1706L18.511 20.7237C18.7265 20.4255 18.6595 20.0089 18.3614 19.7931Z" fill="white"/>
<path d="M30.7856 10.334H24.7244C24.5109 10.334 24.3098 10.4365 24.1841 10.6098L19.1195 17.6092C18.904 17.9075 18.971 18.3241 19.2692 18.5399C19.387 18.6256 19.5238 18.6666 19.6592 18.6666C19.8657 18.6666 20.0693 18.5709 20.2003 18.3907L25.065 11.6673H30.7857C31.1541 11.6673 31.4523 11.3687 31.4523 11.0006C31.4523 10.6325 31.154 10.334 30.7856 10.334Z" fill="white"/>
<path d="M30.7849 7.66766H24.0433C23.4034 7.66766 22.798 7.97711 22.423 8.49522L17.516 15.2762C17.3004 15.5743 17.3674 15.9912 17.6656 16.207C17.7835 16.2926 17.9203 16.3336 18.0556 16.3336C18.2622 16.3336 18.4658 16.2379 18.5968 16.0577L23.5037 9.27659C23.6287 9.10375 23.8306 9.00074 24.0433 9.00074H30.7849C31.1533 9.00074 31.4515 8.70223 31.4515 8.3341C31.4514 7.96607 31.1533 7.66766 30.7849 7.66766Z" fill="white"/>
<path d="M35.5062 8.29411L31.5065 3.68958C30.7826 2.85704 29.5171 2.76936 28.6858 3.49155C28.2821 3.84181 28.0394 4.32829 28.0022 4.86105C27.9644 5.39381 28.1368 5.90948 28.4871 6.31257L31.3625 9.62259L28.4696 13.0423C27.7581 13.8842 27.8635 15.1484 28.7052 15.8605C29.0659 16.1654 29.5242 16.3335 29.9961 16.3335C30.5866 16.3335 31.1432 16.0753 31.524 15.6252L35.5236 10.8969C36.1649 10.1381 36.1578 9.04335 35.5062 8.29411ZM34.5058 10.0361L30.5061 14.7644C30.3792 14.9142 30.1937 15.0004 29.9963 15.0004C29.885 15.0004 29.7204 14.973 29.566 14.8427C29.2861 14.6054 29.2509 14.1838 29.4879 13.9033L32.7499 10.0477C32.9622 9.7966 32.9595 9.42818 32.744 9.17996L29.4936 5.43833C29.377 5.30417 29.3192 5.13221 29.3315 4.95469C29.3444 4.77717 29.4251 4.61507 29.56 4.49819C29.6856 4.38873 29.8411 4.33522 29.996 4.33522C30.1828 4.33522 30.3684 4.41285 30.5002 4.5642L34.4998 9.16873C34.7174 9.41832 34.7199 9.78313 34.5058 10.0361Z" fill="white"/>
<path d="M30.7847 26.9989H24.0432C23.8304 26.9989 23.6286 26.8958 23.5036 26.723L8.46714 5.9436C8.34147 5.77027 8.14032 5.66774 7.92686 5.66774H1.9998C1.63197 5.66774 1.33317 5.36875 1.33317 5.00111C1.33317 4.63347 1.63197 4.33448 1.9998 4.33448H8.60785C8.82062 4.33448 9.02246 4.43749 9.14745 4.61033L24.1838 25.39C24.3094 25.5634 24.5106 25.6659 24.7241 25.6659H30.7853C31.1537 25.6659 31.4519 25.3674 31.4519 24.9993C31.4519 24.6311 31.1538 24.3326 30.7853 24.3326H25.0645L10.2282 3.82896C9.85324 3.31065 9.24783 3.0014 8.60785 3.0014H1.9998C0.89708 3.0014 0 3.89848 0 5.00121C0 6.10393 0.89708 7.00101 1.9998 7.00101H7.58647L22.4228 27.5047C22.7978 28.023 23.4039 28.3322 24.0432 28.3322H30.7847C31.1531 28.3322 31.4513 28.0336 31.4513 27.6655C31.4512 27.2974 31.1531 26.9989 30.7847 26.9989Z" fill="white"/>
<path d="M35.5241 25.1031L31.5244 20.3748C30.8123 19.5336 29.5493 19.4277 28.7051 20.1396C27.8639 20.8516 27.7585 22.1158 28.4701 22.958L31.363 26.3775L28.4876 29.6871C28.1374 30.0904 27.9648 30.6061 28.0027 31.1388C28.0399 31.6716 28.2827 32.1581 28.6863 32.5083C29.0502 32.8243 29.5155 32.9984 29.9966 32.9984C30.5766 32.9984 31.1267 32.7475 31.5071 32.31L35.5067 27.7063C36.1582 26.9569 36.1653 25.8622 35.5241 25.1031ZM34.4998 26.8317L30.5002 31.4357C30.3734 31.5815 30.1897 31.6652 29.9965 31.6652C29.8831 31.6652 29.7153 31.637 29.5597 31.5019C29.4255 31.3851 29.3449 31.2229 29.3319 31.0454C29.3196 30.8679 29.3776 30.6961 29.4941 30.5617L32.7444 26.8203C32.9599 26.5722 32.9624 26.2037 32.7503 25.9525L29.4883 22.0971C29.2513 21.8162 29.2865 21.3946 29.5664 21.1575C29.6914 21.0518 29.8444 21 29.9973 21C30.1867 21 30.3748 21.0802 30.5061 21.2355L34.5057 25.9638C34.7191 26.2169 34.7173 26.5817 34.4998 26.8317Z" fill="white"/>
</g>
<defs>
<clipPath id="clip0">
<rect width="36" height="36" fill="white"/>
</clipPath>
</defs>
</svg>
